<svg width="1600" height="1000" viewBox="0 0 1600 1000" fill="none" xmlns="http://www.w3.org/2000/svg">
  <defs>
    <linearGradient id="bg" x1="0" y1="0" x2="1600" y2="1000" gradientUnits="userSpaceOnUse">
      <stop stop-color="#06203A"/>
      <stop offset="1" stop-color="#0A1324"/>
    </linearGradient>
    <linearGradient id="panel" x1="0" y1="0" x2="1200" y2="700" gradientUnits="userSpaceOnUse">
      <stop stop-color="#0F2A52"/>
      <stop offset="1" stop-color="#0B1730"/>
    </linearGradient>
    <linearGradient id="ring" x1="0" y1="0" x2="1" y2="1">
      <stop stop-color="#22D3EE"/>
      <stop offset="1" stop-color="#3B82F6"/>
    </linearGradient>
    <filter id="soft" x="-30%" y="-30%" width="160%" height="160%">
      <feGaussianBlur stdDeviation="22"/>
    </filter>
  </defs>

  <rect width="1600" height="1000" fill="url(#bg)"/>
  <circle cx="220" cy="120" r="170" fill="#22D3EE" fill-opacity="0.16" filter="url(#soft)"/>
  <circle cx="1360" cy="180" r="190" fill="#3B82F6" fill-opacity="0.18" filter="url(#soft)"/>
  <circle cx="860" cy="920" r="230" fill="#10B981" fill-opacity="0.12" filter="url(#soft)"/>

  <rect x="140" y="120" width="1320" height="760" rx="36" fill="#09162B" stroke="#1E3A5F"/>
  <rect x="180" y="170" width="1240" height="110" rx="20" fill="#1B2B44"/>
  <rect x="212" y="202" width="220" height="18" rx="9" fill="#22D3EE" fill-opacity="0.28"/>
  <rect x="212" y="230" width="420" height="30" rx="8" fill="#ffffff" fill-opacity="0.12"/>
  <rect x="1230" y="205" width="140" height="40" rx="20" fill="#10B981" fill-opacity="0.24"/>
  <text x="1270" y="231" fill="#A7F3D0" font-family="Segoe UI, Arial, sans-serif" font-size="22" font-weight="700">Stable</text>

  <rect x="220" y="320" width="1160" height="120" rx="18" fill="url(#panel)" stroke="#274265"/>
  <rect x="220" y="468" width="1160" height="120" rx="18" fill="url(#panel)" stroke="#274265"/>
  <rect x="220" y="616" width="1160" height="120" rx="18" fill="url(#panel)" stroke="#274265"/>
  <rect x="220" y="764" width="1160" height="120" rx="18" fill="url(#panel)" stroke="#274265"/>

  <text x="280" y="384" fill="#E2E8F0" font-family="Segoe UI, Arial, sans-serif" font-size="44" font-weight="700">/v1/products</text>
  <text x="280" y="426" fill="#94A3B8" font-family="Segoe UI, Arial, sans-serif" font-size="26" font-weight="700">GET</text>

  <text x="280" y="532" fill="#E2E8F0" font-family="Segoe UI, Arial, sans-serif" font-size="44" font-weight="700">/v1/orders</text>
  <text x="280" y="574" fill="#94A3B8" font-family="Segoe UI, Arial, sans-serif" font-size="26" font-weight="700">POST</text>

  <text x="280" y="680" fill="#E2E8F0" font-family="Segoe UI, Arial, sans-serif" font-size="44" font-weight="700">/v1/auth/login</text>
  <text x="280" y="722" fill="#94A3B8" font-family="Segoe UI, Arial, sans-serif" font-size="26" font-weight="700">POST</text>

  <text x="280" y="828" fill="#E2E8F0" font-family="Segoe UI, Arial, sans-serif" font-size="44" font-weight="700">/v1/users/:id</text>
  <text x="280" y="870" fill="#94A3B8" font-family="Segoe UI, Arial, sans-serif" font-size="26" font-weight="700">GET</text>

  <rect x="1240" y="356" width="96" height="48" rx="24" fill="#A7F3D0"/>
  <text x="1270" y="389" fill="#065F46" font-family="Segoe UI, Arial, sans-serif" font-size="28" font-weight="800">200</text>

  <rect x="1240" y="504" width="96" height="48" rx="24" fill="#BAE6FD"/>
  <text x="1270" y="537" fill="#075985" font-family="Segoe UI, Arial, sans-serif" font-size="28" font-weight="800">201</text>

  <rect x="1240" y="652" width="96" height="48" rx="24" fill="#DDD6FE"/>
  <text x="1270" y="685" fill="#5B21B6" font-family="Segoe UI, Arial, sans-serif" font-size="28" font-weight="800">200</text>

  <rect x="1240" y="800" width="96" height="48" rx="24" fill="#FECACA"/>
  <text x="1270" y="833" fill="#991B1B" font-family="Segoe UI, Arial, sans-serif" font-size="28" font-weight="800">401</text>

  <rect x="100" y="64" width="320" height="84" rx="20" fill="#ffffff" fill-opacity="0.92"/>
  <text x="132" y="102" fill="#0E7490" font-family="Segoe UI, Arial, sans-serif" font-size="18" font-weight="700" letter-spacing="2">SESSION GUARD</text>
  <text x="132" y="132" fill="#0F172A" font-family="Segoe UI, Arial, sans-serif" font-size="32" font-weight="700">Protected routes active</text>

  <rect x="1320" y="70" width="190" height="70" rx="16" fill="url(#ring)" fill-opacity="0.95"/>
  <text x="1360" y="114" fill="#ECFEFF" font-family="Segoe UI, Arial, sans-serif" font-size="26" font-weight="700">LIVE</text>
</svg>
